<svg width="19" height="24" viewBox="0 0 19 24" fill="none" xmlns="http://www.w3.org/2000/svg">
<path d="M9.5 1C5.78792 1 2.77868 4.18997 2.77868 8.125V13.2662C2.77868 14.6565 2.2577 15.9898 1.33035 16.9728C0.624651 17.7209 1.12446 19 2.12247 19H16.8775C17.8755 19 18.3753 17.7209 17.6696 16.9728C16.7423 15.9898 16.2213 14.6565 16.2213 13.2662V8.125C16.2213 4.18997 13.2121 1 9.5 1Z" stroke="#C4C4C4" stroke-width="1.5"/>
<path d="M6 19H13V19.5C13 21.433 11.433 23 9.5 23V23C7.567 23 6 21.433 6 19.5V19Z" stroke="#C4C4C4" stroke-width="1.5"/>
</svg>
