<svg width="23" height="25" viewBox="0 0 23 25" fill="none" xmlns="http://www.w3.org/2000/svg">
<path d="M14.5285 11.8201L14.1177 11.1927C13.8766 11.3505 13.7473 11.6324 13.7849 11.9181C13.8226 12.2037 14.0205 12.4426 14.2942 12.5326L14.5285 11.8201ZM8.08452 11.8201L8.3188 12.5325C8.5925 12.4425 8.79045 12.2037 8.82809 11.9181C8.86574 11.6324 8.73642 11.3504 8.49538 11.1926L8.08452 11.8201ZM1 23.8214H0.25C0.25 24.2356 0.585786 24.5714 1 24.5714L1 23.8214ZM21.6129 23.8214V24.5714C22.0271 24.5714 22.3629 24.2356 22.3629 23.8214H21.6129ZM16.446 6.8894C16.446 8.68926 15.5213 10.2736 14.1177 11.1927L14.9394 12.4476C16.7483 11.2631 17.946 9.21631 17.946 6.8894H16.446ZM11.3066 1.75C14.145 1.75 16.446 4.05099 16.446 6.8894H17.946C17.946 3.22256 14.9734 0.25 11.3066 0.25V1.75ZM6.16716 6.8894C6.16716 4.05099 8.46814 1.75 11.3066 1.75V0.25C7.63972 0.25 4.66716 3.22256 4.66716 6.8894H6.16716ZM8.49538 11.1926C7.09175 10.2735 6.16716 8.68924 6.16716 6.8894H4.66716C4.66716 9.21627 5.86475 11.263 7.67367 12.4475L8.49538 11.1926ZM1.75 21.6129C1.75 17.3795 4.50321 13.7872 8.3188 12.5325L7.85025 11.1076C3.43751 12.5586 0.25 16.7125 0.25 21.6129H1.75ZM1.75 23.8214V21.6129H0.25V23.8214H1.75ZM11.3065 23.0714H1V24.5714H11.3065V23.0714ZM21.6129 23.0714H11.3065V24.5714H21.6129V23.0714ZM20.8629 21.6129V23.8214H22.3629V21.6129H20.8629ZM14.2942 12.5326C18.1098 13.7872 20.8629 17.3795 20.8629 21.6129H22.3629C22.3629 16.7126 19.1755 12.5587 14.7628 11.1076L14.2942 12.5326Z" fill="#C4C4C4"/>
</svg>
