<svg width="56" height="66" viewBox="0 0 56 66" fill="none" xmlns="http://www.w3.org/2000/svg">
<circle cx="28.1769" cy="51.5527" r="14.4301" fill="#7CD685"/>
<g filter="url(#filter0_bi)">
<path d="M28 0.0168457C16.1166 0.0168457 6.48312 9.56923 6.48312 21.3527L6.48312 39.7427C6.48312 43.9058 4.81532 47.8983 1.84661 50.842C-0.412537 53.0822 1.18748 56.9125 4.3824 56.9125H51.6176C54.8125 56.9125 56.4126 53.0822 54.1534 50.842C51.1847 47.8983 49.5169 43.9058 49.5169 39.7427V21.3527C49.5169 9.56924 39.8835 0.0168457 28 0.0168457Z" fill="#F1F1F1" fill-opacity="0.3"/>
<path d="M28 0.0168457C16.1166 0.0168457 6.48312 9.56923 6.48312 21.3527L6.48312 39.7427C6.48312 43.9058 4.81532 47.8983 1.84661 50.842C-0.412537 53.0822 1.18748 56.9125 4.3824 56.9125H51.6176C54.8125 56.9125 56.4126 53.0822 54.1534 50.842C51.1847 47.8983 49.5169 43.9058 49.5169 39.7427V21.3527C49.5169 9.56924 39.8835 0.0168457 28 0.0168457Z" fill="url(#paint0_linear)"/>
<path d="M6.91973 21.3527C6.91973 9.81384 16.3542 0.453455 28 0.453455C39.6458 0.453455 49.0803 9.81384 49.0803 21.3527V39.7427C49.0803 44.0228 50.795 48.1268 53.846 51.1521C55.8228 53.1122 54.4305 56.4759 51.6176 56.4759H4.3824C1.56953 56.4759 0.177265 53.1122 2.15403 51.1521C5.20502 48.1268 6.91973 44.0228 6.91973 39.7427L6.91973 21.3527Z" stroke="url(#paint1_linear)" stroke-opacity="0.4" stroke-width="0.873219"/>
</g>
<defs>
<filter id="filter0_bi" x="-9.68956" y="-10.4618" width="75.3791" height="77.8529" filterUnits="userSpaceOnUse" color-interpolation-filters="sRGB">
<feFlood flood-opacity="0" result="BackgroundImageFix"/>
<feGaussianBlur in="BackgroundImage" stdDeviation="5.23931"/>
<feComposite in2="SourceAlpha" operator="in" result="effect1_backgroundBlur"/>
<feBlend mode="normal" in="SourceGraphic" in2="effect1_backgroundBlur" result="shape"/>
<feColorMatrix in="SourceAlpha" type="matrix" values="0 0 0 0 0 0 0 0 0 0 0 0 0 0 0 0 0 0 127 0" result="hardAlpha"/>
<feOffset/>
<feGaussianBlur stdDeviation="0.261966"/>
<feComposite in2="hardAlpha" operator="arithmetic" k2="-1" k3="1"/>
<feColorMatrix type="matrix" values="0 0 0 0 1 0 0 0 0 1 0 0 0 0 1 0 0 0 0.4 0"/>
<feBlend mode="normal" in2="shape" result="effect2_innerShadow"/>
</filter>
<linearGradient id="paint0_linear" x1="19.5776" y1="57.0303" x2="19.5776" y2="0.0168457" gradientUnits="userSpaceOnUse">
<stop stop-color="#7CD685" stop-opacity="0.3"/>
<stop offset="1" stop-color="#7CD685" stop-opacity="0.1"/>
</linearGradient>
<linearGradient id="paint1_linear" x1="1.87404" y1="-6.23623" x2="63.4196" y2="40.3598" gradientUnits="userSpaceOnUse">
<stop stop-color="white"/>
<stop offset="1" stop-color="white" stop-opacity="0"/>
</linearGradient>
</defs>
</svg>
