<svg width="186" height="71" viewBox="0 0 186 71" fill="none" xmlns="http://www.w3.org/2000/svg">
<g filter="url(#filter0_d)">
<path d="M3 27.5C3 12.3122 15.3122 0 30.5 0H155.5C170.688 0 183 12.3122 183 27.5C183 42.6878 170.688 55 155.5 55H30.5C15.3122 55 3 42.6878 3 27.5Z" fill="#FF796A"/>
</g>
<path d="M94.232 68C93.4622 69.3333 91.5377 69.3333 90.7679 68L81.6747 52.25C80.9049 50.9167 81.8671 49.25 83.4067 49.25L101.593 49.25C103.133 49.25 104.095 50.9167 103.325 52.25L94.232 68Z" fill="#FF796A"/>
<circle cx="55.5" cy="17.5" r="6.5" fill="white"/>
<path d="M54.6622 18.31H51.8202V17.358H54.6622V14.306H55.6842V17.358H58.5262V18.31H55.6842V21.376H54.6622V18.31Z" fill="#7CD685"/>
<path d="M78.9744 11.478V24.064H77.8264V17.064H74.8864V20.886H69.1324V12.472H70.2664V15.734H73.7664V12.472H74.8864V16.14H77.8264V11.478H78.9744ZM73.7664 16.644H70.2664V19.948H73.7664V16.644ZM91.3773 17.26H82.8513V11.94H91.3073V12.836H83.9993V14.152H90.9713V15.02H83.9993V16.364H91.3773V17.26ZM92.7073 18.436V19.36H81.3533V18.436H92.7073ZM83.9713 22.818H91.5313V23.756H82.8233V20.27H83.9713V22.818ZM99.7762 16.042C98.3949 16.042 97.3122 15.86 96.5282 15.496C95.7536 15.1227 95.3662 14.5813 95.3662 13.872C95.3662 13.1627 95.7536 12.6213 96.5282 12.248C97.3122 11.8747 98.3949 11.688 99.7762 11.688C101.158 11.688 102.236 11.8747 103.01 12.248C103.794 12.6213 104.186 13.1627 104.186 13.872C104.186 14.5813 103.794 15.1227 103.01 15.496C102.236 15.86 101.158 16.042 99.7762 16.042ZM99.7762 12.556C98.7309 12.556 97.9282 12.6727 97.3682 12.906C96.8176 13.13 96.5422 13.452 96.5422 13.872C96.5422 14.292 96.8176 14.6187 97.3682 14.852C97.9282 15.076 98.7309 15.188 99.7762 15.188C100.822 15.188 101.62 15.076 102.17 14.852C102.73 14.6187 103.01 14.292 103.01 13.872C103.01 13.452 102.73 13.13 102.17 12.906C101.62 12.6727 100.822 12.556 99.7762 12.556ZM105.46 16.896V17.82H94.0922V16.896H105.46ZM96.6262 23H104.382V23.896H95.5062V20.886H102.87V19.766H95.4642V18.898H104.004V21.726H96.6262V23ZM119.888 15.398H111.362V11.66H112.496V14.474H119.888V15.398ZM116.08 17.428V18.744H119.776V21.642H112.412V23H120.196V23.896H111.264V20.802H118.628V19.626H111.236V18.744H114.932V17.428H109.836V16.49H121.218V17.428H116.08ZM132.907 11.464V24.05H131.759V17.246H129.365V16.308H131.759V11.464H132.907ZM124.171 20.074C124.703 20.074 125.202 20.0693 125.669 20.06C126.145 20.0507 126.598 20.032 127.027 20.004C127.466 19.9667 127.9 19.9247 128.329 19.878C128.758 19.822 129.197 19.752 129.645 19.668L129.757 20.62C129.281 20.704 128.819 20.774 128.371 20.83C127.932 20.8767 127.48 20.9187 127.013 20.956C126.556 20.984 126.08 21.0027 125.585 21.012C125.1 21.0213 124.572 21.026 124.003 21.026H123.037V16.112H127.503V13.578H123.009V12.64H128.623V17.036H124.171V20.074ZM42.2995 33.816H34.8935V32.892H38.0155V31.366H39.1635V32.892H42.2995V33.816ZM46.4575 34.964V35.916H44.5955V39.556H43.4475V31.478H44.5955V34.964H46.4575ZM41.5995 36.658C41.5995 36.994 41.5248 37.302 41.3755 37.582C41.2355 37.8527 41.0302 38.086 40.7595 38.282C40.4982 38.478 40.1808 38.6273 39.8075 38.73C39.4435 38.8327 39.0375 38.884 38.5895 38.884C38.1415 38.884 37.7308 38.8327 37.3575 38.73C36.9935 38.6273 36.6808 38.478 36.4195 38.282C36.1582 38.086 35.9528 37.8527 35.8035 37.582C35.6635 37.302 35.5935 36.994 35.5935 36.658C35.5935 36.322 35.6635 36.0187 35.8035 35.748C35.9528 35.4773 36.1582 35.244 36.4195 35.048C36.6808 34.852 36.9935 34.7027 37.3575 34.6C37.7308 34.4973 38.1415 34.446 38.5895 34.446C39.0375 34.446 39.4435 34.4973 39.8075 34.6C40.1808 34.7027 40.4982 34.852 40.7595 35.048C41.0302 35.244 41.2355 35.4773 41.3755 35.748C41.5248 36.0187 41.5995 36.322 41.5995 36.658ZM36.6855 36.658C36.6855 37.078 36.8582 37.4093 37.2035 37.652C37.5582 37.8947 38.0202 38.016 38.5895 38.016C39.1775 38.016 39.6442 37.8947 39.9895 37.652C40.3348 37.4093 40.5075 37.078 40.5075 36.658C40.5075 36.238 40.3348 35.9113 39.9895 35.678C39.6442 35.4353 39.1775 35.314 38.5895 35.314C38.0202 35.314 37.5582 35.4353 37.2035 35.678C36.8582 35.9113 36.6855 36.238 36.6855 36.658ZM40.6615 39.682C41.2962 39.682 41.8655 39.7333 42.3695 39.836C42.8735 39.9293 43.2982 40.0693 43.6435 40.256C43.9982 40.4333 44.2688 40.6573 44.4555 40.928C44.6515 41.1987 44.7495 41.5067 44.7495 41.852C44.7495 42.1973 44.6515 42.5053 44.4555 42.776C44.2688 43.0373 43.9982 43.2613 43.6435 43.448C43.2982 43.6347 42.8735 43.7747 42.3695 43.868C41.8655 43.9707 41.2962 44.022 40.6615 44.022C39.3922 44.022 38.3935 43.8307 37.6655 43.448C36.9375 43.0747 36.5735 42.5427 36.5735 41.852C36.5735 41.1613 36.9375 40.6293 37.6655 40.256C38.3935 39.8733 39.3922 39.682 40.6615 39.682ZM40.6615 43.14C41.5948 43.14 42.3182 43.0327 42.8315 42.818C43.3542 42.594 43.6155 42.272 43.6155 41.852C43.6155 41.432 43.3542 41.1147 42.8315 40.9C42.3182 40.676 41.5948 40.564 40.6615 40.564C39.7282 40.564 39.0002 40.676 38.4775 40.9C37.9642 41.1147 37.7075 41.432 37.7075 41.852C37.7075 42.272 37.9642 42.594 38.4775 42.818C39.0002 43.0327 39.7282 43.14 40.6615 43.14ZM58.9444 37.848V38.772H47.5764V37.848H52.7004V36.252H49.0464V31.996H57.4884V36.252H53.8484V37.848H58.9444ZM50.1664 35.342H56.3544V32.906H50.1664V35.342ZM48.8504 40.074H57.5444V44.05H56.3964V40.998H48.8504V40.074ZM65.9993 36.042C64.618 36.042 63.5353 35.86 62.7513 35.496C61.9766 35.1227 61.5893 34.5813 61.5893 33.872C61.5893 33.1627 61.9766 32.6213 62.7513 32.248C63.5353 31.8747 64.618 31.688 65.9993 31.688C67.3806 31.688 68.4586 31.8747 69.2333 32.248C70.0173 32.6213 70.4093 33.1627 70.4093 33.872C70.4093 34.5813 70.0173 35.1227 69.2333 35.496C68.4586 35.86 67.3806 36.042 65.9993 36.042ZM65.9993 32.556C64.954 32.556 64.1513 32.6727 63.5913 32.906C63.0406 33.13 62.7653 33.452 62.7653 33.872C62.7653 34.292 63.0406 34.6187 63.5913 34.852C64.1513 35.076 64.954 35.188 65.9993 35.188C67.0446 35.188 67.8426 35.076 68.3933 34.852C68.9533 34.6187 69.2333 34.292 69.2333 33.872C69.2333 33.452 68.9533 33.13 68.3933 32.906C67.8426 32.6727 67.0446 32.556 65.9993 32.556ZM71.6833 36.896V37.82H60.3153V36.896H71.6833ZM62.8493 43H70.6053V43.896H61.7293V40.886H69.0933V39.766H61.6873V38.898H70.2273V41.726H62.8493V43ZM76.7731 37.19C77.3424 37.1153 77.8884 36.98 78.4111 36.784C78.9431 36.5787 79.4097 36.3313 79.8111 36.042C80.2217 35.7527 80.5484 35.4307 80.7911 35.076C81.0337 34.7213 81.1551 34.348 81.1551 33.956H77.1651V33.032H81.1691V31.492H82.3171V33.032H86.3211V33.956H82.3171C82.3171 34.3387 82.4384 34.712 82.6811 35.076C82.9237 35.4307 83.2457 35.7527 83.6471 36.042C84.0577 36.3313 84.5244 36.5787 85.0471 36.784C85.5791 36.98 86.1251 37.1153 86.6851 37.19L86.2791 38.114C85.7937 38.0393 85.3224 37.9273 84.8651 37.778C84.4077 37.6193 83.9784 37.428 83.5771 37.204C83.1851 36.98 82.8304 36.7233 82.5131 36.434C82.1957 36.1447 81.9391 35.832 81.7431 35.496C81.5471 35.832 81.2904 36.1447 80.9731 36.434C80.6557 36.7233 80.2964 36.98 79.8951 37.204C79.5031 37.428 79.0737 37.6193 78.6071 37.778C78.1497 37.9273 77.6784 38.0393 77.1931 38.114L76.7731 37.19ZM87.4271 40.004H82.3171V44.05H81.1691V40.004H76.0731V39.066H87.4271V40.004ZM100.474 37.526H98.458V44.036H97.31V31.478H98.458V36.574H100.474V37.526ZM95.21 32.822C95.21 33.718 95.1026 34.586 94.888 35.426C94.6733 36.266 94.3373 37.064 93.88 37.82C93.4226 38.576 92.8346 39.2807 92.116 39.934C91.3973 40.578 90.5293 41.152 89.512 41.656L88.882 40.76C90.5246 39.9387 91.766 38.9493 92.606 37.792C93.4553 36.6347 93.9453 35.2953 94.076 33.774H89.47V32.822H95.21ZM112.177 31.464V44.022H111.071V37.708H109.461V43.42H108.383V31.758H109.461V36.77H111.071V31.464H112.177ZM105.205 33.62H107.753V34.558H101.523V33.62H104.071V31.842H105.205V33.62ZM104.645 35.398C105.037 35.398 105.396 35.468 105.723 35.608C106.05 35.748 106.33 35.944 106.563 36.196C106.806 36.448 106.992 36.7513 107.123 37.106C107.263 37.4513 107.333 37.834 107.333 38.254C107.333 38.6833 107.263 39.0753 107.123 39.43C106.992 39.7753 106.806 40.074 106.563 40.326C106.33 40.578 106.05 40.774 105.723 40.914C105.396 41.054 105.037 41.124 104.645 41.124C104.253 41.124 103.894 41.054 103.567 40.914C103.24 40.774 102.956 40.578 102.713 40.326C102.48 40.074 102.293 39.7753 102.153 39.43C102.022 39.0753 101.957 38.6833 101.957 38.254C101.957 37.834 102.022 37.4513 102.153 37.106C102.293 36.7513 102.48 36.448 102.713 36.196C102.956 35.944 103.24 35.748 103.567 35.608C103.894 35.468 104.253 35.398 104.645 35.398ZM104.645 40.172C105.13 40.172 105.527 39.9947 105.835 39.64C106.152 39.276 106.311 38.814 106.311 38.254C106.311 37.9833 106.269 37.7313 106.185 37.498C106.101 37.2647 105.984 37.064 105.835 36.896C105.695 36.728 105.522 36.5973 105.317 36.504C105.112 36.4107 104.888 36.364 104.645 36.364C104.141 36.364 103.735 36.5413 103.427 36.896C103.128 37.2413 102.979 37.694 102.979 38.254C102.979 38.814 103.133 39.276 103.441 39.64C103.758 39.9947 104.16 40.172 104.645 40.172ZM125.658 41.488V42.426H114.276V41.488H119.372V38.786H115.62V32.374H116.754V34.614H123.166V32.374H124.286V38.786H120.534V41.488H125.658ZM116.754 37.862H123.166V35.552H116.754V37.862ZM137.683 31.478V44.036H136.591V31.478H137.683ZM134.043 31.758H135.121V43.42H134.043V36.938H131.971V35.986H134.043V31.758ZM130.739 35.02C130.739 35.524 130.795 36.028 130.907 36.532C131.028 37.036 131.196 37.5167 131.411 37.974C131.635 38.4313 131.905 38.8513 132.223 39.234C132.549 39.6073 132.918 39.92 133.329 40.172L132.671 41.068C132.073 40.704 131.565 40.2093 131.145 39.584C130.734 38.9493 130.417 38.2493 130.193 37.484C129.969 38.3333 129.633 39.094 129.185 39.766C128.746 40.4287 128.214 40.956 127.589 41.348L126.875 40.48C127.304 40.228 127.687 39.906 128.023 39.514C128.368 39.122 128.657 38.688 128.891 38.212C129.133 37.7267 129.315 37.218 129.437 36.686C129.567 36.1447 129.633 35.6033 129.633 35.062V32.668H130.739V35.02ZM151.15 41.474V42.426H139.74V41.474H142.54V38.086C142.008 37.8153 141.592 37.4607 141.294 37.022C141.004 36.574 140.86 36.0653 140.86 35.496C140.86 35.0107 140.972 34.572 141.196 34.18C141.42 33.7787 141.732 33.438 142.134 33.158C142.544 32.878 143.03 32.6633 143.59 32.514C144.15 32.3553 144.761 32.276 145.424 32.276C146.096 32.276 146.707 32.3553 147.258 32.514C147.818 32.6633 148.298 32.878 148.7 33.158C149.11 33.438 149.428 33.7787 149.652 34.18C149.876 34.572 149.988 35.0107 149.988 35.496C149.988 36.0653 149.843 36.5693 149.554 37.008C149.274 37.4467 148.868 37.8013 148.336 38.072V41.474H151.15ZM145.424 33.172C144.92 33.172 144.453 33.228 144.024 33.34C143.604 33.452 143.24 33.6107 142.932 33.816C142.633 34.012 142.395 34.2547 142.218 34.544C142.05 34.824 141.966 35.1413 141.966 35.496C141.966 35.8413 142.05 36.1587 142.218 36.448C142.395 36.7373 142.633 36.9847 142.932 37.19C143.24 37.386 143.604 37.54 144.024 37.652C144.453 37.764 144.92 37.82 145.424 37.82C145.928 37.82 146.39 37.764 146.81 37.652C147.239 37.54 147.608 37.386 147.916 37.19C148.224 36.9847 148.462 36.7373 148.63 36.448C148.807 36.1587 148.896 35.8413 148.896 35.496C148.896 35.1413 148.807 34.824 148.63 34.544C148.462 34.2547 148.224 34.012 147.916 33.816C147.608 33.6107 147.239 33.452 146.81 33.34C146.39 33.228 145.928 33.172 145.424 33.172ZM143.688 41.474H147.188V38.52C146.562 38.6507 145.974 38.716 145.424 38.716C144.836 38.716 144.257 38.6507 143.688 38.52V41.474Z" fill="white"/>
<defs>
<filter id="filter0_d" x="0.402299" y="0" width="185.195" height="60.1954" filterUnits="userSpaceOnUse" color-interpolation-filters="sRGB">
<feFlood flood-opacity="0" result="BackgroundImageFix"/>
<feColorMatrix in="SourceAlpha" type="matrix" values="0 0 0 0 0 0 0 0 0 0 0 0 0 0 0 0 0 0 127 0" result="hardAlpha"/>
<feOffset dy="2.5977"/>
<feGaussianBlur stdDeviation="1.29885"/>
<feComposite in2="hardAlpha" operator="out"/>
<feColorMatrix type="matrix" values="0 0 0 0 0 0 0 0 0 0 0 0 0 0 0 0 0 0 0.05 0"/>
<feBlend mode="normal" in2="BackgroundImageFix" result="effect1_dropShadow"/>
<feBlend mode="normal" in="SourceGraphic" in2="effect1_dropShadow" result="shape"/>
</filter>
</defs>
</svg>
